<svg id="svg" version="1.1" xmlns="http://www.w3.org/2000/svg" xmlns:xlink="http://www.w3.org/1999/xlink" width="400" height="239.91769547325103" viewBox="0, 0, 400,239.91769547325103"><g id="svgg"><path id="path0" d="M62.394 73.876 C 61.610 74.191,61.594 74.469,61.333 92.593 C 61.048 112.277,61.264 118.781,62.342 123.045 C 62.757 124.688,62.717 124.859,61.774 125.484 C 59.656 126.887,59.834 126.274,51.426 161.214 C 48.785 172.187,48.879 172.664,53.704 172.716 C 59.011 172.773,80.750 172.419,80.895 172.273 C 81.287 171.881,81.308 170.867,80.933 170.411 C 80.556 169.953,80.555 169.953,76.543 170.152 C 67.780 170.586,53.944 170.857,53.122 170.611 C 52.135 170.315,51.578 169.719,51.601 168.982 C 51.618 168.434,58.693 137.941,60.207 131.893 C 61.123 128.229,61.837 126.749,62.686 126.749 C 63.004 126.749,62.940 126.483,63.983 132.202 C 65.292 139.384,68.324 154.004,69.082 156.785 C 69.526 158.417,69.947 158.653,71.741 158.277 C 73.961 157.811,74.150 157.405,73.661 154.155 C 73.416 152.520,66.514 80.171,66.279 76.768 C 66.072 73.762,64.882 72.876,62.394 73.876 M189.338 92.285 C 185.537 92.974,183.068 95.286,182.103 99.059 C 181.549 101.223,181.459 127.709,181.997 129.992 C 183.121 134.761,186.472 137.243,191.785 137.243 C 199.242 137.243,202.015 133.946,202.212 124.846 L 202.309 120.370 199.121 120.370 L 195.934 120.370 195.850 124.331 C 195.778 127.744,195.711 128.406,195.363 129.113 C 194.010 131.860,189.505 131.572,188.704 128.687 C 188.263 127.101,188.411 101.295,188.866 100.309 C 189.532 98.867,190.143 98.473,191.834 98.397 C 194.926 98.257,195.696 99.379,195.844 104.244 L 195.940 107.407 199.128 107.407 L 202.315 107.407 202.209 103.858 C 201.934 94.729,197.559 90.796,189.338 92.285 M258.267 92.272 C 253.084 93.256,250.354 97.441,250.675 103.909 C 250.919 108.815,253.032 112.430,258.387 117.104 C 259.548 118.117,261.012 119.568,261.639 120.327 C 266.014 125.623,264.639 132.245,259.450 130.863 C 257.551 130.357,257.007 129.272,257.000 125.981 C 256.995 123.217,257.292 123.415,253.292 123.500 L 250.514 123.560 250.455 125.480 C 250.226 132.891,253.508 136.927,259.979 137.193 C 267.364 137.495,271.067 133.785,271.020 126.132 C 270.987 120.809,269.895 118.810,263.599 112.551 C 260.022 108.995,259.236 108.103,258.588 106.864 C 257.104 104.025,257.085 100.795,258.543 99.204 L 259.228 98.457 261.008 98.457 L 262.789 98.457 263.470 99.200 C 264.242 100.043,264.609 101.364,264.609 103.302 L 264.609 104.527 267.798 104.527 L 270.988 104.527 270.984 102.829 C 270.968 95.103,265.829 90.838,258.267 92.272 M295.679 92.106 C 290.959 92.796,288.417 94.910,287.177 99.177 C 286.539 101.371,286.471 127.565,287.097 129.835 C 288.555 135.122,291.886 137.409,297.833 137.205 C 303.406 137.013,306.614 134.270,307.540 128.903 C 308.017 126.141,307.848 101.033,307.340 99.280 C 305.843 94.102,301.271 91.290,295.679 92.106 M132.510 114.712 L 132.510 136.831 141.975 136.831 L 151.440 136.831 151.440 133.748 L 151.440 130.665 145.422 130.610 L 139.403 130.556 139.349 124.023 L 139.295 117.490 144.133 117.490 L 148.971 117.490 148.971 114.403 L 148.971 111.317 144.136 111.317 L 139.300 111.317 139.300 105.041 L 139.300 98.765 145.370 98.765 L 151.440 98.765 151.440 95.679 L 151.440 92.593 141.975 92.593 L 132.510 92.593 132.510 114.712 M155.139 93.673 C 156.174 96.467,161.934 113.724,161.934 114.031 C 161.934 114.222,160.221 119.395,158.128 125.525 C 156.034 131.656,154.321 136.708,154.321 136.752 C 154.321 136.795,155.750 136.831,157.496 136.831 L 160.670 136.831 162.652 130.710 C 166.113 120.024,166.343 119.342,166.493 119.342 C 166.573 119.342,167.255 121.263,168.007 123.611 C 168.759 125.959,170.022 129.895,170.814 132.356 L 172.253 136.831 175.838 136.831 C 177.810 136.831,179.424 136.795,179.424 136.752 C 179.424 136.708,177.711 131.654,175.617 125.520 C 173.524 119.386,171.811 114.213,171.811 114.023 C 171.811 113.725,177.102 97.881,178.506 93.976 L 179.007 92.582 175.791 92.639 L 172.575 92.695 169.981 100.675 C 168.554 105.064,167.300 108.658,167.193 108.661 C 167.029 108.666,165.015 102.582,162.539 94.599 L 161.916 92.593 158.327 92.593 L 154.738 92.593 155.139 93.673 M206.584 114.712 L 206.584 136.831 216.049 136.831 L 225.514 136.831 225.514 133.745 L 225.514 130.658 219.547 130.658 L 213.580 130.658 213.580 124.074 L 213.580 117.490 218.313 117.490 L 223.045 117.490 223.045 114.403 L 223.045 111.317 218.313 111.317 L 213.580 111.317 213.580 105.041 L 213.580 98.765 219.547 98.765 L 225.514 98.765 225.514 95.679 L 225.514 92.593 216.049 92.593 L 206.584 92.593 206.584 114.712 M230.041 114.712 L 230.041 136.831 239.198 136.831 L 248.354 136.831 248.354 133.745 L 248.354 130.658 242.593 130.658 L 236.831 130.658 236.831 111.626 L 236.831 92.593 233.436 92.593 L 230.041 92.593 230.041 114.712 M275.309 114.712 L 275.309 136.831 278.704 136.831 L 282.099 136.831 282.099 114.712 L 282.099 92.593 278.704 92.593 L 275.309 92.593 275.309 114.712 M312.346 114.712 L 312.346 136.831 315.844 136.831 L 319.342 136.831 319.342 127.754 L 319.342 118.678 321.472 118.756 C 325.917 118.921,326.178 119.453,326.354 128.704 C 326.443 133.327,326.565 135.707,326.739 136.163 L 326.995 136.831 330.443 136.831 L 333.890 136.831 333.595 135.751 C 333.386 134.985,333.252 132.665,333.134 127.778 C 332.963 120.708,332.882 120.026,332.008 118.337 C 331.497 117.348,330.484 116.291,329.488 115.707 L 328.580 115.175 329.362 114.658 C 332.287 112.721,333.128 110.473,333.128 104.588 C 333.128 94.326,331.050 92.603,318.673 92.596 L 312.346 92.593 312.346 114.712 M299.180 98.738 C 299.640 98.985,300.081 99.481,300.412 100.122 L 300.926 101.121 300.926 114.604 L 300.926 128.086 300.412 129.105 C 299.081 131.737,295.204 131.756,294.013 129.136 C 293.570 128.159,293.404 102.130,293.831 100.591 C 294.379 98.619,297.160 97.655,299.180 98.738 M66.342 99.537 C 66.643 101.420,68.930 125.300,68.930 126.554 C 68.930 127.076,68.179 127.094,68.015 126.576 C 67.918 126.271,66.151 106.200,65.698 100.257 C 65.569 98.566,66.094 97.979,66.342 99.537 M324.443 99.175 C 325.915 99.843,326.206 100.770,326.300 105.074 C 326.436 111.290,325.551 112.547,321.039 112.550 L 319.342 112.551 319.342 105.658 L 319.342 98.765 321.451 98.770 C 323.095 98.773,323.754 98.863,324.443 99.175 M69.136 128.940 C 69.136 129.014,69.285 129.812,69.468 130.714 C 69.747 132.091,69.755 132.382,69.520 132.532 C 69.050 132.829,68.954 132.747,68.829 131.944 C 68.763 131.520,68.628 130.710,68.530 130.144 C 68.432 129.579,68.395 129.046,68.447 128.961 C 68.564 128.772,69.136 128.755,69.136 128.940 M133.380 145.199 C 132.072 145.726,132.129 153.277,133.445 153.782 C 134.797 154.300,136.123 153.671,136.425 152.366 C 136.767 150.890,136.702 150.617,136.008 150.617 C 135.427 150.617,135.391 150.665,135.391 151.426 C 135.391 152.561,134.884 153.065,134.143 152.668 C 133.183 152.154,133.644 146.091,134.643 146.091 C 134.954 146.091,135.391 146.819,135.391 147.340 C 135.391 147.872,135.463 147.942,136.008 147.942 C 136.684 147.942,136.713 147.848,136.425 146.605 C 136.124 145.307,134.722 144.660,133.380 145.199 M143.715 145.567 C 143.219 146.062,143.210 146.135,143.210 149.486 C 143.210 153.497,143.387 153.909,145.109 153.909 C 146.903 153.909,147.323 153.070,147.323 149.486 C 147.323 145.901,146.903 145.062,145.109 145.062 C 144.439 145.062,144.095 145.186,143.715 145.567 M153.909 149.486 L 153.909 153.909 155.234 153.909 C 157.869 153.909,158.231 153.394,158.229 149.647 C 158.227 145.630,157.846 145.062,155.151 145.062 L 153.909 145.062 153.909 149.486 M165.021 149.486 L 165.021 153.909 165.638 153.909 L 166.255 153.909 166.255 149.486 L 166.255 145.062 165.638 145.062 L 165.021 145.062 165.021 149.486 M173.045 149.486 L 173.045 153.909 173.657 153.909 L 174.269 153.909 174.326 150.772 L 174.383 147.634 175.198 150.772 L 176.013 153.909 176.690 153.909 L 177.366 153.909 177.366 149.486 L 177.366 145.062 176.852 145.062 L 176.337 145.062 176.334 147.274 C 176.330 150.220,176.112 150.469,175.516 148.209 C 174.602 144.741,174.771 145.062,173.859 145.062 L 173.045 145.062 173.045 149.486 M184.648 145.620 C 183.874 146.455,183.953 152.876,184.745 153.517 C 186.489 154.928,188.066 153.702,188.066 150.935 L 188.066 148.971 187.243 148.971 C 186.366 148.971,185.966 149.988,186.728 150.280 C 187.331 150.512,187.051 152.578,186.388 152.788 C 185.528 153.061,185.391 152.606,185.391 149.486 C 185.391 146.348,185.526 145.910,186.410 146.190 C 186.705 146.284,186.870 146.567,186.960 147.133 C 187.168 148.430,188.066 148.328,188.066 147.007 C 188.066 145.160,185.892 144.278,184.648 145.620 M202.675 149.462 L 202.675 153.909 203.292 153.909 L 203.909 153.909 203.909 152.290 L 203.909 150.671 204.784 150.554 C 206.154 150.370,206.584 149.721,206.584 147.840 C 206.584 145.679,206.168 145.213,204.140 145.098 L 202.675 145.015 202.675 149.462 M213.169 149.486 L 213.169 153.909 213.786 153.909 L 214.403 153.909 214.403 152.058 C 214.403 150.262,214.418 150.206,214.877 150.206 C 215.609 150.206,215.843 150.601,215.846 151.842 C 215.851 153.581,215.989 153.909,216.720 153.909 L 217.342 153.909 217.232 152.150 C 217.155 150.907,217.020 150.277,216.775 150.007 C 216.450 149.647,216.451 149.590,216.783 149.083 C 217.240 148.385,217.258 146.498,216.813 145.819 C 216.457 145.276,215.709 145.062,214.172 145.062 L 213.169 145.062 213.169 149.486 M224.766 145.302 C 224.018 145.665,223.868 146.367,223.868 149.509 C 223.868 153.344,224.126 153.890,225.941 153.903 C 227.698 153.915,227.881 153.495,227.881 149.451 L 227.881 146.055 227.303 145.558 C 226.682 145.024,225.572 144.912,224.766 145.302 M235.550 148.817 L 235.494 152.572 234.928 152.637 C 233.955 152.749,234.104 153.909,235.092 153.909 C 236.673 153.909,236.831 153.462,236.831 148.981 L 236.831 145.062 236.219 145.062 L 235.606 145.062 235.550 148.817 M243.621 149.486 L 243.621 153.909 245.473 153.909 L 247.325 153.909 247.325 153.292 C 247.325 152.681,247.314 152.675,246.193 152.675 L 245.062 152.675 245.062 151.337 L 245.062 150.000 246.001 150.000 C 247.396 150.000,247.336 148.906,245.936 148.805 L 245.062 148.742 245.062 147.519 L 245.062 146.296 246.193 146.296 C 247.314 146.296,247.325 146.290,247.325 145.679 L 247.325 145.062 245.473 145.062 L 243.621 145.062 243.621 149.486 M254.620 145.567 C 254.125 146.062,254.115 146.135,254.115 149.486 C 254.115 153.455,254.303 153.909,255.941 153.909 C 257.452 153.909,258.025 153.262,258.025 151.553 C 258.025 150.084,256.846 150.102,256.750 151.574 C 256.678 152.668,256.221 153.142,255.676 152.689 C 255.406 152.466,255.350 151.911,255.350 149.486 C 255.350 147.060,255.406 146.506,255.676 146.282 C 256.168 145.873,256.675 146.302,256.751 147.192 C 256.809 147.871,256.873 147.942,257.420 147.942 C 258.130 147.942,258.275 146.966,257.724 145.899 C 257.196 144.880,255.490 144.697,254.620 145.567 M264.403 145.679 C 264.403 146.247,264.460 146.296,265.123 146.296 L 265.844 146.296 265.844 150.103 L 265.844 153.909 266.461 153.909 L 267.078 153.909 267.078 150.103 L 267.078 146.296 267.798 146.296 C 268.461 146.296,268.519 146.247,268.519 145.679 L 268.519 145.062 266.461 145.062 L 264.403 145.062 264.403 145.679 M282.716 149.459 L 282.716 153.909 284.064 153.909 C 285.476 153.909,286.481 153.553,286.703 152.974 C 287.027 152.131,286.836 150.134,286.386 149.655 C 285.946 149.187,285.946 149.176,286.334 148.746 C 286.620 148.431,286.728 148.006,286.728 147.206 C 286.728 145.607,286.296 145.237,284.275 145.108 L 282.716 145.008 282.716 149.459 M293.004 145.117 C 293.004 145.161,293.374 146.433,293.827 147.942 C 294.484 150.132,294.650 151.013,294.650 152.298 L 294.650 153.909 295.370 153.909 L 296.091 153.909 296.091 152.298 C 296.091 151.013,296.257 150.132,296.914 147.942 C 297.366 146.433,297.737 145.167,297.737 145.130 C 297.737 145.092,297.473 145.062,297.151 145.062 C 296.586 145.062,296.547 145.130,296.097 146.862 C 295.470 149.274,295.414 149.283,294.829 147.075 C 294.332 145.198,294.312 145.163,293.664 145.100 C 293.301 145.065,293.004 145.072,293.004 145.117 M311.934 149.486 L 311.934 153.909 313.786 153.909 L 315.638 153.909 315.638 153.292 L 315.638 152.675 314.403 152.675 L 313.169 152.675 313.169 151.337 L 313.169 150.000 314.108 150.000 C 315.503 150.000,315.443 148.906,314.043 148.805 L 313.169 148.742 313.169 147.519 L 313.169 146.296 314.403 146.296 L 315.638 146.296 315.638 145.679 L 315.638 145.062 313.786 145.062 L 311.934 145.062 311.934 149.486 M330.247 145.679 L 330.247 146.296 331.481 146.296 C 332.974 146.296,332.974 145.987,331.481 149.556 C 330.791 151.206,330.247 152.816,330.247 153.208 L 330.247 153.909 332.202 153.909 L 334.156 153.909 334.156 153.302 C 334.156 152.698,334.147 152.693,332.839 152.633 L 331.522 152.572 332.839 149.411 C 333.564 147.673,334.156 145.983,334.156 145.656 L 334.156 145.062 332.202 145.062 L 330.247 145.062 330.247 145.679 M145.638 146.337 C 146.046 146.746,145.976 152.343,145.559 152.689 C 144.764 153.349,144.551 152.733,144.490 149.594 C 144.426 146.289,144.729 145.428,145.638 146.337 M226.426 146.414 C 227.224 147.212,226.786 152.881,225.926 152.881 C 225.265 152.881,225.103 152.211,225.103 149.486 C 225.103 146.761,225.265 146.091,225.926 146.091 C 226.023 146.091,226.248 146.236,226.426 146.414 M156.795 146.824 C 156.906 147.114,156.996 148.312,156.996 149.486 C 156.996 152.127,156.820 152.675,155.972 152.675 L 155.350 152.675 155.350 149.486 L 155.350 146.296 155.972 146.296 C 156.451 146.296,156.641 146.418,156.795 146.824 M205.225 146.622 C 205.703 147.869,205.242 149.383,204.383 149.383 C 203.931 149.383,203.909 149.313,203.909 147.840 L 203.909 146.296 204.505 146.296 C 204.858 146.296,205.151 146.429,205.225 146.622 M215.741 147.634 L 215.741 148.868 215.072 148.933 L 214.403 148.997 214.403 147.634 L 214.403 146.270 215.072 146.335 L 215.741 146.399 215.741 147.634 M285.464 147.061 C 285.707 147.917,285.184 148.824,284.503 148.727 C 284.108 148.670,284.046 148.517,283.991 147.466 L 283.929 146.269 284.602 146.334 C 285.161 146.388,285.307 146.512,285.464 147.061 M285.494 151.337 L 285.494 152.572 284.722 152.636 L 283.951 152.700 283.951 151.337 L 283.951 149.975 284.722 150.039 L 285.494 150.103 285.494 151.337 M322.222 153.292 C 322.222 153.841,322.291 153.909,322.840 153.909 C 323.388 153.909,323.457 153.841,323.457 153.292 C 323.457 152.743,323.388 152.675,322.840 152.675 C 322.291 152.675,322.222 152.743,322.222 153.292 M340.741 153.292 C 340.741 153.841,340.809 153.909,341.358 153.909 C 341.907 153.909,341.975 153.841,341.975 153.292 C 341.975 152.743,341.907 152.675,341.358 152.675 C 340.809 152.675,340.741 152.743,340.741 153.292 M104.115 167.143 C 104.115 168.224,104.022 169.355,103.908 169.655 L 103.700 170.201 99.609 170.052 C 94.976 169.884,94.962 169.889,95.101 171.562 L 95.165 172.325 105.864 172.325 L 116.564 172.325 116.507 171.399 C 116.289 167.851,112.535 165.524,106.636 165.281 L 104.115 165.177 104.115 167.143 M101.023 165.818 C 99.409 166.335,97.493 167.400,96.693 168.225 L 96.010 168.930 99.445 168.930 L 102.881 168.930 102.881 167.181 C 102.881 165.178,102.924 165.210,101.023 165.818 " stroke="none" fill="#161616" fill-rule="evenodd"></path><path id="path1" d="M0.000 119.959 L 0.000 239.918 200.000 239.918 L 400.000 239.918 400.000 119.959 L 400.000 0.000 200.000 0.000 L 0.000 0.000 0.000 119.959 M65.872 74.000 C 66.109 74.212,66.249 74.829,66.348 76.091 C 66.578 79.059,73.649 153.034,73.908 155.190 C 74.187 157.520,74.056 157.816,72.572 158.202 C 70.600 158.714,69.608 158.585,69.237 157.767 C 68.759 156.717,64.715 137.365,63.378 129.733 C 62.795 126.404,62.850 126.500,62.050 127.417 C 61.367 128.200,60.905 129.482,60.103 132.819 C 59.885 133.724,57.881 142.273,55.648 151.815 L 51.588 169.166 51.997 169.717 C 52.878 170.902,51.914 170.883,73.927 170.147 C 79.189 169.971,80.740 169.976,80.975 170.171 C 81.419 170.540,81.376 172.156,80.916 172.394 C 80.276 172.724,52.091 172.848,51.150 172.525 C 49.200 171.854,49.043 170.520,50.305 165.329 C 50.718 163.632,51.832 159.002,52.781 155.041 C 59.704 126.145,59.618 126.417,62.208 125.000 C 62.563 124.805,62.567 124.718,62.276 123.456 C 61.168 118.644,60.839 110.965,61.107 96.193 C 61.224 89.743,61.343 82.223,61.370 79.482 C 61.426 73.910,61.415 73.950,62.898 73.649 C 63.924 73.440,65.447 73.620,65.872 74.000 M194.756 92.199 C 199.902 93.150,202.290 96.902,202.342 104.115 L 202.366 107.510 199.074 107.510 L 195.782 107.510 195.670 104.218 C 195.582 101.611,195.481 100.765,195.182 100.150 C 194.039 97.799,190.232 97.753,189.107 100.077 C 188.692 100.935,188.683 101.240,188.683 114.630 L 188.683 128.308 189.146 129.226 C 190.283 131.480,193.830 131.463,195.165 129.197 C 195.528 128.580,195.588 128.015,195.679 124.383 L 195.782 120.267 199.074 120.267 L 202.366 120.267 202.354 124.486 C 202.331 132.625,200.321 135.956,194.719 137.143 C 188.717 138.415,183.901 136.025,182.069 130.864 L 181.594 129.527 181.528 115.412 C 181.456 99.785,181.474 99.517,182.749 96.920 C 184.667 93.017,189.308 91.192,194.756 92.199 M263.944 92.286 C 268.478 93.354,270.785 96.607,271.130 102.418 L 271.255 104.527 267.854 104.527 L 264.452 104.527 264.365 102.623 C 264.254 100.222,263.873 99.355,262.673 98.775 C 258.613 96.809,256.084 101.608,258.565 106.568 C 259.259 107.956,259.812 108.590,263.602 112.346 C 269.809 118.496,270.928 120.467,271.134 125.617 C 271.436 133.144,267.681 137.441,260.802 137.441 C 253.989 137.441,250.669 133.863,250.276 126.095 L 250.142 123.457 253.544 123.457 L 256.946 123.457 257.030 125.987 C 257.157 129.789,257.883 130.761,260.597 130.761 C 263.632 130.761,264.984 127.783,263.677 123.974 C 262.931 121.799,262.273 121.018,256.398 115.329 C 251.987 111.058,250.523 107.946,250.541 102.881 C 250.570 94.826,256.118 90.440,263.944 92.286 M300.012 92.183 C 303.771 92.896,306.367 95.395,307.456 99.348 C 307.972 101.222,308.263 122.126,307.843 127.146 C 307.347 133.067,304.988 136.101,300.069 137.143 C 293.562 138.522,288.257 135.507,286.957 129.692 C 286.407 127.233,286.464 101.520,287.024 99.329 C 288.442 93.785,293.573 90.962,300.012 92.183 M151.440 95.679 L 151.440 98.971 145.473 98.971 L 139.506 98.971 139.506 105.041 L 139.506 111.111 144.239 111.111 L 148.971 111.111 148.971 114.403 L 148.971 117.695 144.239 117.695 L 139.506 117.695 139.506 124.074 L 139.506 130.453 145.473 130.453 L 151.440 130.453 151.440 133.747 L 151.440 137.041 141.924 136.988 L 132.407 136.934 132.355 114.660 L 132.303 92.387 141.872 92.387 L 151.440 92.387 151.440 95.679 M164.576 100.566 C 165.990 105.008,167.182 108.607,167.225 108.563 C 167.269 108.520,168.449 104.960,169.847 100.652 C 171.246 96.345,172.450 92.723,172.524 92.604 C 172.730 92.271,179.013 92.310,179.010 92.644 C 179.008 92.785,177.393 97.652,175.420 103.459 L 171.832 114.016 175.712 125.372 C 177.845 131.618,179.523 136.800,179.441 136.888 C 179.358 136.975,177.681 137.022,175.714 136.991 L 172.138 136.934 169.356 128.253 C 167.825 123.479,166.525 119.619,166.465 119.675 C 166.406 119.732,165.105 123.638,163.573 128.356 L 160.787 136.934 157.621 136.991 C 155.880 137.022,154.388 136.976,154.305 136.888 C 154.222 136.800,155.899 131.619,158.033 125.374 L 161.911 114.020 158.326 103.460 C 156.354 97.653,154.739 92.783,154.737 92.639 C 154.733 92.435,155.531 92.390,158.369 92.434 L 162.006 92.490 164.576 100.566 M225.674 95.628 L 225.617 98.868 219.599 98.923 L 213.580 98.977 213.580 105.044 L 213.580 111.111 218.421 111.111 L 223.261 111.111 223.205 114.352 L 223.148 117.593 218.364 117.648 L 213.580 117.703 213.580 124.078 L 213.580 130.453 219.655 130.453 L 225.731 130.453 225.674 133.693 L 225.617 136.934 216.101 136.988 L 206.584 137.041 206.584 114.714 L 206.584 92.387 216.157 92.387 L 225.731 92.387 225.674 95.628 M237.037 111.416 L 237.037 130.446 242.747 130.501 L 248.457 130.556 248.457 133.745 L 248.457 136.934 239.198 136.934 L 229.938 136.934 229.886 114.660 L 229.834 92.387 233.435 92.387 L 237.037 92.387 237.037 111.416 M282.202 114.712 L 282.202 136.934 278.704 136.934 L 275.206 136.934 275.153 114.656 L 275.101 92.377 278.651 92.433 L 282.202 92.490 282.202 114.712 M326.749 92.839 C 331.707 94.161,333.230 96.908,333.230 104.527 C 333.230 110.421,332.493 112.586,329.856 114.440 C 328.797 115.184,328.787 115.201,329.256 115.445 C 332.534 117.147,333.127 119.006,333.322 128.189 C 333.439 133.672,333.536 135.264,333.794 135.971 C 334.207 137.102,334.354 137.060,330.248 136.991 L 326.870 136.934 326.590 136.008 C 326.395 135.363,326.266 133.059,326.164 128.395 C 325.967 119.430,325.804 119.096,321.570 118.963 L 319.342 118.894 319.342 127.965 L 319.342 137.037 315.844 137.037 L 312.346 137.037 312.346 114.693 L 312.346 92.348 318.981 92.443 C 323.908 92.513,325.909 92.615,326.749 92.839 M295.516 98.792 C 294.914 99.089,294.487 99.500,294.178 100.077 L 293.724 100.926 293.724 114.609 C 293.724 129.986,293.661 129.338,295.267 130.416 C 296.369 131.155,298.684 131.010,299.586 130.146 C 300.837 128.948,300.847 128.819,300.780 114.167 L 300.720 100.926 300.245 100.036 C 299.407 98.466,297.296 97.910,295.516 98.792 M65.789 99.022 C 65.726 99.187,65.760 100.054,65.865 100.947 C 65.971 101.841,66.513 107.979,67.070 114.587 C 68.017 125.813,68.194 127.179,68.663 126.890 C 68.946 126.715,66.419 99.660,66.058 99.000 C 65.932 98.769,65.885 98.773,65.789 99.022 M319.342 105.658 L 319.342 112.346 321.367 112.346 C 325.452 112.346,326.005 111.584,326.079 105.864 C 326.160 99.607,325.754 98.971,321.677 98.971 L 319.342 98.971 319.342 105.658 M68.668 128.937 C 68.414 129.347,68.980 132.510,69.307 132.510 C 69.539 132.510,69.573 132.301,69.469 131.520 C 69.282 130.107,68.835 128.667,68.668 128.937 M135.366 145.084 C 136.752 145.567,137.216 148.148,135.917 148.148 C 135.231 148.148,135.207 148.121,135.146 147.274 C 135.089 146.495,135.026 146.399,134.568 146.399 L 134.053 146.399 134.053 149.486 L 134.053 152.572 134.568 152.572 C 135.036 152.572,135.088 152.483,135.145 151.595 C 135.207 150.623,135.212 150.617,135.941 150.617 L 136.675 150.617 136.585 151.860 C 136.480 153.315,136.065 153.859,134.919 154.045 C 132.873 154.377,132.305 153.385,132.305 149.486 C 132.305 145.363,133.058 144.279,135.366 145.084 M146.066 145.084 C 147.143 145.459,147.325 146.093,147.325 149.462 C 147.325 153.316,146.954 154.115,145.165 154.115 C 143.402 154.115,143.004 153.263,143.004 149.486 C 143.004 145.306,143.726 144.268,146.066 145.084 M187.013 145.084 C 188.407 145.570,188.861 148.148,187.551 148.148 C 186.877 148.148,186.831 148.106,186.828 147.479 C 186.824 146.623,186.574 146.236,186.086 146.330 C 185.728 146.399,185.700 146.634,185.700 149.486 C 185.700 152.337,185.728 152.572,186.086 152.641 C 186.814 152.781,187.226 150.607,186.523 150.337 C 185.634 149.996,186.175 148.971,187.243 148.971 L 188.272 148.971 188.272 150.710 C 188.272 153.174,187.674 154.115,186.111 154.115 C 184.384 154.115,183.951 153.186,183.951 149.486 C 183.951 145.350,184.697 144.277,187.013 145.084 M227.411 145.411 C 228.205 146.130,228.546 151.218,227.902 152.757 C 227.290 154.222,225.634 154.584,224.437 153.515 L 223.765 152.915 223.765 149.525 C 223.765 145.882,223.862 145.533,225.000 145.041 C 225.567 144.796,226.970 145.012,227.411 145.411 M256.949 145.076 C 258.314 145.552,258.789 148.148,257.510 148.148 C 256.874 148.148,256.790 148.086,256.790 147.620 C 256.790 146.935,256.443 146.296,256.070 146.296 C 255.322 146.296,254.963 151.458,255.646 152.378 C 256.106 152.998,256.672 152.533,256.751 151.471 C 256.849 150.144,258.230 150.135,258.230 151.461 C 258.230 153.758,255.932 154.993,254.436 153.499 C 253.909 152.973,253.675 147.155,254.136 146.041 C 254.538 145.069,255.743 144.656,256.949 145.076 M157.158 145.194 C 158.043 145.430,158.230 146.212,158.230 149.658 C 158.230 153.742,157.965 154.095,154.887 154.110 L 153.909 154.115 153.909 149.588 L 153.909 145.062 155.298 145.065 C 156.062 145.066,156.899 145.124,157.158 145.194 M166.255 149.602 L 166.255 154.141 165.586 154.077 L 164.918 154.012 164.862 149.537 L 164.807 145.062 165.531 145.062 L 166.255 145.062 166.255 149.602 M175.435 147.377 L 176.029 149.691 176.087 147.377 L 176.145 145.062 176.863 145.062 L 177.580 145.062 177.525 149.537 L 177.469 154.012 176.834 154.074 C 175.978 154.158,175.893 154.005,175.085 150.926 L 174.383 148.251 174.280 151.132 L 174.177 154.012 173.560 154.012 L 172.942 154.012 172.887 149.537 L 172.831 145.062 173.836 145.062 L 174.841 145.062 175.435 147.377 M206.110 145.558 C 207.626 146.862,206.678 150.617,204.832 150.617 L 204.132 150.617 204.072 152.315 L 204.012 154.012 203.292 154.012 L 202.572 154.012 202.517 149.537 L 202.461 145.062 203.997 145.062 C 205.324 145.062,205.611 145.129,206.110 145.558 M216.779 145.567 C 217.396 146.184,217.511 148.350,216.967 149.126 C 216.688 149.525,216.686 149.634,216.951 150.046 C 217.139 150.337,217.276 151.176,217.315 152.263 L 217.377 154.012 216.662 154.012 L 215.947 154.012 215.844 152.469 C 215.729 150.755,215.591 150.412,215.016 150.412 C 214.666 150.412,214.619 150.600,214.566 152.212 L 214.506 154.012 213.786 154.012 L 213.066 154.012 213.010 149.537 L 212.955 145.062 214.614 145.062 C 216.102 145.062,216.326 145.114,216.779 145.567 M237.037 148.776 C 237.037 153.090,236.913 153.540,235.611 153.930 C 234.550 154.247,234.156 154.076,234.156 153.299 C 234.156 152.769,234.235 152.675,234.676 152.675 C 235.457 152.675,235.597 152.018,235.597 148.341 L 235.597 145.062 236.317 145.062 L 237.037 145.062 237.037 148.776 M247.531 145.679 L 247.531 146.296 246.296 146.296 L 245.062 146.296 245.062 147.531 L 245.062 148.765 246.104 148.765 L 247.145 148.765 247.081 149.434 C 247.019 150.075,246.976 150.105,246.039 150.166 L 245.062 150.228 245.062 151.452 L 245.062 152.675 246.309 152.675 L 247.557 152.675 247.492 153.344 L 247.428 154.012 245.576 154.012 L 243.724 154.012 243.669 149.537 L 243.613 145.062 245.572 145.062 L 247.531 145.062 247.531 145.679 M268.724 145.679 C 268.724 146.247,268.667 146.296,268.009 146.296 L 267.293 146.296 267.237 150.154 L 267.181 154.012 266.461 154.012 L 265.741 154.012 265.685 150.154 L 265.629 146.296 264.913 146.296 C 264.255 146.296,264.198 146.247,264.198 145.679 L 264.198 145.062 266.461 145.062 L 268.724 145.062 268.724 145.679 M286.326 145.567 C 286.951 146.192,287.058 148.174,286.500 148.791 C 286.194 149.129,286.201 149.199,286.603 149.709 C 286.921 150.114,287.037 150.554,287.037 151.356 C 287.037 153.435,286.432 153.979,284.098 154.000 L 282.613 154.012 282.558 149.537 L 282.502 145.062 284.162 145.062 C 285.649 145.062,285.873 145.114,286.326 145.567 M294.658 145.936 C 295.473 149.052,295.445 149.037,296.000 146.656 L 296.372 145.062 297.151 145.062 C 297.683 145.062,297.902 145.143,297.842 145.319 C 296.791 148.411,296.091 151.338,296.091 152.636 L 296.091 154.115 295.370 154.115 L 294.650 154.115 294.650 152.636 C 294.650 151.338,293.950 148.411,292.899 145.319 C 292.839 145.142,293.064 145.062,293.620 145.062 C 294.398 145.062,294.437 145.095,294.658 145.936 M315.638 145.679 C 315.638 146.290,315.626 146.296,314.506 146.296 L 313.374 146.296 313.374 147.531 L 313.374 148.765 314.313 148.765 C 315.727 148.765,315.667 150.064,314.249 150.166 L 313.374 150.229 313.374 151.452 L 313.374 152.675 314.506 152.675 L 315.638 152.675 315.638 153.403 L 315.638 154.131 313.735 154.072 L 311.831 154.012 311.776 149.537 L 311.720 145.062 313.679 145.062 L 315.638 145.062 315.638 145.679 M334.362 145.573 C 334.362 145.855,333.796 147.452,333.104 149.123 C 332.413 150.793,331.801 152.276,331.745 152.418 C 331.670 152.608,332.001 152.675,333.016 152.675 L 334.388 152.675 334.324 153.344 L 334.259 154.012 332.202 154.012 L 330.144 154.012 330.098 153.292 C 330.065 152.795,330.453 151.618,331.353 149.486 L 332.654 146.399 331.451 146.338 C 330.269 146.278,330.247 146.266,330.247 145.669 L 330.247 145.062 332.305 145.062 C 334.359 145.062,334.362 145.062,334.362 145.573 M144.657 146.694 C 144.017 147.891,144.493 152.675,145.253 152.675 C 145.810 152.675,145.885 152.298,145.885 149.486 C 145.885 148.089,145.829 146.801,145.760 146.622 C 145.586 146.170,144.914 146.214,144.657 146.694 M155.350 149.486 L 155.350 152.675 155.823 152.675 C 156.689 152.675,156.790 152.343,156.790 149.486 C 156.790 146.628,156.689 146.296,155.823 146.296 L 155.350 146.296 155.350 149.486 M204.115 147.737 C 204.115 149.136,204.130 149.177,204.630 149.177 C 205.273 149.177,205.445 146.662,204.819 146.421 C 204.186 146.178,204.115 146.311,204.115 147.737 M214.609 147.634 C 214.609 149.058,215.120 149.528,215.631 148.573 C 216.111 147.675,215.737 146.296,215.013 146.296 C 214.653 146.296,214.609 146.441,214.609 147.634 M225.405 146.549 C 225.345 146.704,225.322 148.122,225.354 149.701 L 225.412 152.572 225.926 152.572 L 226.440 152.572 226.440 149.486 C 226.440 146.440,226.434 146.398,225.976 146.333 C 225.721 146.297,225.464 146.394,225.405 146.549 M284.156 147.428 C 284.156 148.484,284.189 148.560,284.649 148.560 C 285.366 148.560,285.720 147.119,285.144 146.543 C 284.523 145.922,284.156 146.250,284.156 147.428 M284.156 151.337 C 284.156 152.713,284.264 152.858,285.060 152.552 C 285.922 152.221,285.588 150.000,284.676 150.000 C 284.174 150.000,284.156 150.045,284.156 151.337 M323.624 153.241 C 323.520 154.490,322.222 154.549,322.222 153.305 C 322.222 152.484,322.235 152.469,322.955 152.469 C 323.676 152.469,323.686 152.482,323.624 153.241 M342.142 153.241 C 342.039 154.490,340.741 154.549,340.741 153.305 C 340.741 152.484,340.754 152.469,341.473 152.469 C 342.194 152.469,342.205 152.482,342.142 153.241 M110.320 165.613 C 114.314 166.651,116.820 169.021,116.629 171.581 L 116.564 172.456 105.886 172.458 C 94.080 172.460,94.753 172.544,94.980 171.091 C 95.192 169.738,95.226 169.729,99.691 169.951 C 104.125 170.171,103.909 170.296,103.909 167.512 C 103.909 165.911,103.984 165.226,104.167 165.142 C 104.687 164.902,108.792 165.217,110.320 165.613 M103.005 167.336 C 102.885 169.362,103.323 169.156,99.290 169.089 L 95.847 169.033 96.311 168.443 C 97.024 167.537,98.764 166.524,100.754 165.855 C 103.050 165.084,103.135 165.139,103.005 167.336 " stroke="none" fill="#fbfbfb" fill-rule="evenodd"></path><path id="path2" d="M61.402 80.144 C 61.402 82.181,61.433 82.987,61.470 81.934 C 61.508 80.882,61.508 79.215,61.470 78.230 C 61.432 77.246,61.402 78.107,61.402 80.144 M132.399 92.644 C 132.345 92.785,132.325 98.457,132.356 105.247 L 132.411 117.593 132.460 105.095 L 132.510 92.597 142.027 92.541 L 151.543 92.486 142.020 92.436 C 134.555 92.397,132.476 92.442,132.399 92.644 M156.420 92.540 C 157.404 92.578,159.071 92.578,160.123 92.540 C 161.176 92.503,160.370 92.472,158.333 92.472 C 156.296 92.472,155.435 92.502,156.420 92.540 M174.238 92.540 C 175.177 92.578,176.659 92.578,177.530 92.540 C 178.402 92.501,177.634 92.470,175.823 92.470 C 174.012 92.470,173.299 92.502,174.238 92.540 M211.265 92.541 C 213.897 92.574,218.202 92.574,220.833 92.541 C 223.465 92.508,221.312 92.482,216.049 92.482 C 210.787 92.482,208.634 92.508,211.265 92.541 M231.749 92.540 C 232.745 92.578,234.319 92.578,235.247 92.540 C 236.175 92.502,235.360 92.471,233.436 92.471 C 231.512 92.471,230.753 92.502,231.749 92.540 M277.016 92.540 C 278.012 92.578,279.586 92.578,280.514 92.540 C 281.442 92.502,280.628 92.471,278.704 92.471 C 276.780 92.471,276.020 92.502,277.016 92.540 M315.084 92.541 C 316.647 92.576,319.147 92.576,320.640 92.541 C 322.133 92.505,320.854 92.477,317.798 92.477 C 314.743 92.477,313.521 92.506,315.084 92.541 M61.159 96.091 C 61.159 96.487,61.201 96.649,61.253 96.451 C 61.305 96.253,61.305 95.928,61.253 95.730 C 61.201 95.532,61.159 95.694,61.159 96.091 M139.392 105.041 C 139.391 108.436,139.420 109.854,139.454 108.192 C 139.489 106.529,139.489 103.752,139.454 102.019 C 139.420 100.286,139.392 101.646,139.392 105.041 M264.465 103.498 C 264.465 104.120,264.504 104.375,264.551 104.064 C 264.598 103.753,264.598 103.243,264.551 102.932 C 264.504 102.621,264.465 102.876,264.465 103.498 M333.204 104.527 C 333.204 105.715,333.238 106.201,333.279 105.607 C 333.321 105.013,333.321 104.041,333.279 103.447 C 333.238 102.852,333.204 103.338,333.204 104.527 M326.210 105.658 C 326.211 107.016,326.244 107.545,326.284 106.834 C 326.325 106.122,326.324 105.011,326.284 104.364 C 326.243 103.718,326.210 104.300,326.210 105.658 M60.961 105.761 C 60.961 106.271,61.002 106.479,61.051 106.224 C 61.100 105.970,61.100 105.553,61.051 105.298 C 61.002 105.044,60.961 105.252,60.961 105.761 M142.038 111.265 C 143.374 111.301,145.504 111.301,146.771 111.265 C 148.038 111.229,146.944 111.199,144.342 111.199 C 141.739 111.199,140.702 111.229,142.038 111.265 M218.410 111.263 L 223.035 111.325 223.100 114.407 L 223.165 117.490 223.156 114.352 L 223.148 111.214 218.467 111.208 L 213.786 111.202 218.410 111.263 M320.216 112.496 C 320.640 112.540,321.335 112.540,321.759 112.496 C 322.184 112.451,321.836 112.415,320.988 112.415 C 320.139 112.415,319.792 112.451,320.216 112.496 M132.368 118.827 C 132.369 119.506,132.408 119.759,132.454 119.389 C 132.499 119.019,132.498 118.464,132.452 118.155 C 132.405 117.846,132.367 118.148,132.368 118.827 M139.392 124.074 C 139.392 127.639,139.420 129.097,139.454 127.315 C 139.489 125.532,139.489 122.616,139.454 120.833 C 139.420 119.051,139.392 120.509,139.392 124.074 M132.381 122.222 C 132.381 123.410,132.415 123.897,132.456 123.302 C 132.498 122.708,132.498 121.736,132.456 121.142 C 132.415 120.548,132.381 121.034,132.381 122.222 M132.387 127.572 C 132.387 129.326,132.419 130.044,132.457 129.167 C 132.496 128.290,132.496 126.854,132.457 125.977 C 132.419 125.100,132.387 125.818,132.387 127.572 M142.657 130.607 C 144.333 130.641,147.018 130.641,148.624 130.606 C 150.229 130.572,148.858 130.543,145.576 130.543 C 142.294 130.544,140.980 130.572,142.657 130.607 M216.731 130.607 C 218.407 130.641,221.092 130.641,222.698 130.606 C 224.304 130.572,222.932 130.543,219.650 130.543 C 216.368 130.544,215.055 130.572,216.731 130.607 M239.969 130.606 C 241.525 130.641,244.072 130.641,245.628 130.606 C 247.184 130.572,245.910 130.543,242.798 130.543 C 239.686 130.543,238.413 130.572,239.969 130.606 M132.380 133.025 C 132.380 134.156,132.415 134.593,132.456 133.995 C 132.498 133.397,132.498 132.471,132.455 131.938 C 132.413 131.404,132.379 131.893,132.380 133.025 M132.361 136.008 C 132.361 136.517,132.401 136.726,132.450 136.471 C 132.499 136.217,132.499 135.800,132.450 135.545 C 132.401 135.291,132.361 135.499,132.361 136.008 M213.051 149.486 C 213.051 151.975,213.081 152.966,213.117 151.686 C 213.153 150.407,213.153 148.370,213.116 147.159 C 213.080 145.949,213.050 146.996,213.051 149.486 M268.566 145.679 C 268.566 146.075,268.609 146.237,268.660 146.039 C 268.712 145.841,268.712 145.517,268.660 145.319 C 268.609 145.121,268.566 145.283,268.566 145.679 M265.694 147.119 C 265.694 147.629,265.734 147.837,265.783 147.582 C 265.832 147.328,265.832 146.911,265.783 146.656 C 265.734 146.402,265.694 146.610,265.694 147.119 M225.183 149.486 C 225.183 150.957,225.216 151.532,225.256 150.763 C 225.295 149.994,225.295 148.791,225.255 148.088 C 225.215 147.386,225.182 148.014,225.183 149.486 M258.041 147.466 C 258.028 147.815,257.875 147.935,257.356 147.999 L 256.687 148.082 257.362 148.115 C 258.049 148.149,258.375 147.809,258.163 147.280 C 258.105 147.135,258.050 147.219,258.041 147.466 M132.352 151.235 C 132.352 151.631,132.395 151.793,132.446 151.595 C 132.498 151.397,132.498 151.073,132.446 150.874 C 132.395 150.676,132.352 150.838,132.352 151.235 M258.072 151.235 C 258.072 151.631,258.115 151.793,258.167 151.595 C 258.218 151.397,258.218 151.073,258.167 150.874 C 258.115 150.676,258.072 150.838,258.072 151.235 M265.694 151.440 C 265.694 151.950,265.734 152.158,265.783 151.903 C 265.832 151.649,265.832 151.232,265.783 150.977 C 265.734 150.723,265.694 150.931,265.694 151.440 M341.500 152.616 C 341.803 152.672,341.978 152.882,342.034 153.253 C 342.108 153.752,342.115 153.745,342.097 153.189 C 342.082 152.679,341.989 152.569,341.564 152.552 C 341.141 152.536,341.130 152.547,341.500 152.616 M105.302 165.170 C 105.672 165.215,106.227 165.215,106.537 165.168 C 106.846 165.121,106.543 165.083,105.864 165.084 C 105.185 165.085,104.932 165.124,105.302 165.170 M97.685 169.083 C 98.619 169.121,100.147 169.121,101.080 169.083 C 102.014 169.045,101.250 169.014,99.383 169.014 C 97.515 169.014,96.752 169.045,97.685 169.083 " stroke="none" fill="#8c8c8c" fill-rule="evenodd"></path><path id="path3" d="M61.392 85.700 C 61.393 86.831,61.427 87.268,61.469 86.670 C 61.511 86.072,61.510 85.146,61.468 84.612 C 61.426 84.079,61.391 84.568,61.392 85.700 M225.597 95.679 C 225.597 97.433,225.629 98.151,225.667 97.274 C 225.706 96.397,225.706 94.961,225.667 94.084 C 225.629 93.207,225.597 93.925,225.597 95.679 M229.932 105.041 C 229.932 111.944,229.958 114.739,229.990 111.251 C 230.021 107.763,230.021 102.114,229.990 98.699 C 229.958 95.284,229.932 98.138,229.932 105.041 M275.202 114.712 C 275.202 126.934,275.227 131.904,275.257 125.756 C 275.287 119.608,275.287 109.608,275.257 103.534 C 275.227 97.459,275.202 102.490,275.202 114.712 M198.765 94.097 C 198.765 94.133,199.066 94.434,199.434 94.766 L 200.103 95.370 199.499 94.702 C 198.935 94.078,198.765 93.938,198.765 94.097 M61.184 98.457 C 61.184 99.475,61.218 99.918,61.261 99.440 C 61.305 98.963,61.305 98.129,61.263 97.589 C 61.220 97.048,61.185 97.438,61.184 98.457 M181.578 114.609 C 181.578 121.908,181.604 124.895,181.636 121.245 C 181.667 117.595,181.667 111.623,181.636 107.973 C 181.604 104.324,181.578 107.310,181.578 114.609 M257.466 102.572 C 257.468 103.138,257.508 103.345,257.555 103.032 C 257.602 102.719,257.601 102.256,257.552 102.003 C 257.503 101.750,257.465 102.006,257.466 102.572 M195.759 104.835 C 195.759 106.307,195.792 106.881,195.832 106.113 C 195.871 105.344,195.871 104.141,195.831 103.438 C 195.791 102.735,195.759 103.364,195.759 104.835 M271.047 103.601 C 271.048 104.167,271.088 104.374,271.135 104.061 C 271.183 103.748,271.181 103.285,271.132 103.032 C 271.084 102.779,271.045 103.035,271.047 103.601 M300.920 114.712 C 300.920 121.389,300.946 124.091,300.977 120.716 C 301.009 117.341,301.009 111.878,300.977 108.576 C 300.945 105.274,300.919 108.035,300.920 114.712 M61.159 112.551 C 61.159 112.948,61.201 113.110,61.253 112.912 C 61.305 112.713,61.305 112.389,61.253 112.191 C 61.201 111.993,61.159 112.155,61.159 112.551 M265.329 114.198 C 266.001 114.877,266.597 115.432,266.654 115.432 C 266.710 115.432,266.207 114.877,265.535 114.198 C 264.863 113.519,264.267 112.963,264.210 112.963 C 264.154 112.963,264.657 113.519,265.329 114.198 M61.365 116.255 C 61.365 116.651,61.407 116.813,61.459 116.615 C 61.510 116.417,61.510 116.093,61.459 115.895 C 61.407 115.697,61.365 115.859,61.365 116.255 M260.082 118.827 C 260.811 119.563,261.454 120.165,261.511 120.165 C 261.567 120.165,261.017 119.563,260.288 118.827 C 259.559 118.092,258.916 117.490,258.860 117.490 C 258.803 117.490,259.353 118.092,260.082 118.827 M229.899 118.827 C 229.900 119.506,229.939 119.759,229.985 119.389 C 230.030 119.019,230.029 118.464,229.982 118.155 C 229.935 117.846,229.898 118.148,229.899 118.827 M229.912 122.222 C 229.912 123.410,229.946 123.897,229.987 123.302 C 230.029 122.708,230.029 121.736,229.987 121.142 C 229.946 120.548,229.912 121.034,229.912 122.222 M195.763 123.765 C 195.763 125.689,195.794 126.504,195.832 125.576 C 195.870 124.648,195.870 123.074,195.832 122.078 C 195.795 121.082,195.763 121.842,195.763 123.765 M333.216 127.984 C 333.216 130.530,333.245 131.572,333.281 130.298 C 333.317 129.025,333.317 126.942,333.281 125.669 C 333.245 124.396,333.216 125.437,333.216 127.984 M229.918 127.572 C 229.918 129.326,229.950 130.044,229.988 129.167 C 230.027 128.290,230.027 126.854,229.988 125.977 C 229.950 125.100,229.918 125.818,229.918 127.572 M271.035 125.309 C 271.035 125.705,271.078 125.867,271.129 125.669 C 271.181 125.471,271.181 125.147,271.129 124.949 C 271.078 124.751,271.035 124.913,271.035 125.309 M286.673 127.160 C 286.673 127.557,286.716 127.719,286.767 127.521 C 286.819 127.323,286.819 126.998,286.767 126.800 C 286.716 126.602,286.673 126.764,286.673 127.160 M225.597 133.745 C 225.597 135.499,225.629 136.217,225.667 135.340 C 225.706 134.462,225.706 133.027,225.667 132.150 C 225.629 131.273,225.597 131.991,225.597 133.745 M229.911 133.025 C 229.911 134.156,229.946 134.593,229.987 133.995 C 230.029 133.397,230.029 132.471,229.986 131.938 C 229.944 131.404,229.910 131.893,229.911 133.025 M304.822 134.619 L 304.218 135.288 304.887 134.684 C 305.510 134.120,305.650 133.951,305.491 133.951 C 305.456 133.951,305.155 134.252,304.822 134.619 M229.891 136.008 C 229.891 136.517,229.932 136.726,229.981 136.471 C 230.030 136.217,230.030 135.800,229.981 135.545 C 229.932 135.291,229.891 135.499,229.891 136.008 M191.310 137.392 C 191.680 137.438,192.236 137.437,192.545 137.390 C 192.854 137.343,192.551 137.305,191.872 137.307 C 191.193 137.308,190.940 137.346,191.310 137.392 M260.031 137.392 C 260.399 137.437,261.001 137.437,261.368 137.392 C 261.736 137.346,261.435 137.309,260.700 137.309 C 259.964 137.309,259.663 137.346,260.031 137.392 M296.660 137.392 C 297.030 137.438,297.585 137.437,297.895 137.390 C 298.204 137.343,297.901 137.305,297.222 137.307 C 296.543 137.308,296.290 137.346,296.660 137.392 M164.902 149.486 C 164.903 151.975,164.932 152.966,164.969 151.686 C 165.005 150.407,165.005 148.370,164.968 147.159 C 164.932 145.949,164.902 146.996,164.902 149.486 M176.209 147.325 C 176.209 148.627,176.243 149.159,176.284 148.508 C 176.325 147.858,176.325 146.793,176.284 146.142 C 176.243 145.491,176.209 146.024,176.209 147.325 M202.557 149.486 C 202.557 151.975,202.587 152.966,202.623 151.686 C 202.659 150.407,202.659 148.370,202.623 147.159 C 202.586 145.949,202.557 146.996,202.557 149.486 M236.916 148.663 C 236.917 150.700,236.947 151.505,236.985 150.453 C 237.022 149.400,237.022 147.733,236.984 146.749 C 236.947 145.764,236.916 146.626,236.916 148.663 M247.373 145.679 C 247.373 146.075,247.415 146.237,247.467 146.039 C 247.519 145.841,247.519 145.517,247.467 145.319 C 247.415 145.121,247.373 145.283,247.373 145.679 M311.816 149.486 C 311.816 151.975,311.846 152.966,311.882 151.686 C 311.918 150.407,311.918 148.370,311.882 147.159 C 311.846 145.949,311.816 146.996,311.816 149.486 M283.974 147.364 C 283.961 148.008,284.020 148.578,284.105 148.631 C 284.190 148.683,284.232 148.295,284.198 147.768 C 284.101 146.266,284.001 146.084,283.974 147.364 M253.992 149.486 C 253.992 151.183,254.024 151.850,254.063 150.968 C 254.101 150.086,254.101 148.697,254.062 147.882 C 254.023 147.066,253.991 147.788,253.992 149.486 M135.233 147.325 C 135.233 147.721,135.275 147.883,135.327 147.685 C 135.379 147.487,135.379 147.163,135.327 146.965 C 135.275 146.767,135.233 146.929,135.233 147.325 M143.085 149.486 C 143.086 151.070,143.118 151.691,143.157 150.865 C 143.196 150.040,143.196 148.744,143.156 147.985 C 143.117 147.226,143.085 147.901,143.085 149.486 M188.114 147.325 C 188.114 147.721,188.156 147.883,188.208 147.685 C 188.259 147.487,188.259 147.163,188.208 146.965 C 188.156 146.767,188.114 146.929,188.114 147.325 M226.624 149.486 C 226.625 151.070,226.657 151.691,226.696 150.865 C 226.735 150.040,226.735 148.744,226.696 147.985 C 226.656 147.226,226.624 147.901,226.624 149.486 M156.869 149.486 C 156.869 150.844,156.902 151.372,156.943 150.661 C 156.983 149.949,156.983 148.838,156.942 148.192 C 156.901 147.545,156.868 148.128,156.869 149.486 M184.029 149.486 C 184.030 150.844,184.063 151.372,184.103 150.661 C 184.143 149.949,184.143 148.838,184.102 148.192 C 184.062 147.545,184.029 148.128,184.029 149.486 M314.996 149.428 C 315.091 149.999,315.120 150.028,315.185 149.616 C 315.227 149.349,315.176 149.045,315.073 148.941 C 314.959 148.827,314.928 149.019,314.996 149.428 M186.262 149.588 C 186.262 149.985,186.304 150.147,186.356 149.949 C 186.408 149.751,186.408 149.426,186.356 149.228 C 186.304 149.030,186.262 149.192,186.262 149.588 M188.138 150.617 C 188.138 151.579,188.173 151.973,188.217 151.492 C 188.260 151.011,188.260 150.224,188.217 149.743 C 188.173 149.262,188.138 149.655,188.138 150.617 M284.018 151.337 C 284.019 152.130,284.056 152.428,284.101 152.002 C 284.145 151.575,284.145 150.927,284.099 150.561 C 284.054 150.196,284.017 150.545,284.018 151.337 M186.887 151.235 C 186.887 151.744,186.927 151.952,186.976 151.698 C 187.026 151.443,187.026 151.026,186.976 150.772 C 186.927 150.517,186.887 150.725,186.887 151.235 M135.241 151.440 C 135.241 151.950,135.281 152.158,135.330 151.903 C 135.379 151.649,135.379 151.232,135.330 150.977 C 135.281 150.723,135.241 150.931,135.241 151.440 M286.887 151.440 C 286.887 151.950,286.927 152.158,286.976 151.903 C 287.026 151.649,287.026 151.232,286.976 150.977 C 286.927 150.723,286.887 150.931,286.887 151.440 M247.373 153.292 C 247.373 153.688,247.415 153.850,247.467 153.652 C 247.519 153.454,247.519 153.130,247.467 152.932 C 247.415 152.734,247.373 152.896,247.373 153.292 M323.505 153.292 C 323.505 153.688,323.547 153.850,323.599 153.652 C 323.650 153.454,323.650 153.130,323.599 152.932 C 323.547 152.734,323.505 152.896,323.505 153.292 M330.089 153.292 C 330.089 153.688,330.131 153.850,330.183 153.652 C 330.235 153.454,330.235 153.130,330.183 152.932 C 330.131 152.734,330.089 152.896,330.089 153.292 M103.986 167.284 C 103.986 168.472,104.020 168.958,104.061 168.364 C 104.103 167.770,104.103 166.798,104.061 166.204 C 104.020 165.610,103.986 166.096,103.986 167.284 M72.996 170.310 C 73.252 170.359,73.623 170.357,73.819 170.306 C 74.016 170.254,73.807 170.214,73.354 170.216 C 72.901 170.219,72.740 170.261,72.996 170.310 M66.515 170.518 C 66.828 170.565,67.291 170.564,67.544 170.515 C 67.797 170.466,67.541 170.428,66.975 170.429 C 66.409 170.431,66.202 170.471,66.515 170.518 M58.902 170.724 C 59.215 170.771,59.678 170.770,59.931 170.721 C 60.184 170.672,59.928 170.633,59.362 170.635 C 58.796 170.637,58.589 170.676,58.902 170.724 M70.422 172.582 C 71.865 172.617,74.226 172.617,75.669 172.582 C 77.112 172.546,75.931 172.517,73.045 172.517 C 70.159 172.517,68.979 172.546,70.422 172.582 M55.813 172.776 C 56.011 172.827,56.335 172.827,56.533 172.776 C 56.731 172.724,56.569 172.681,56.173 172.681 C 55.777 172.681,55.615 172.724,55.813 172.776 " stroke="none" fill="#848484" fill-rule="evenodd"></path><path id="path4" d="M66.303 76.749 C 66.303 77.145,66.345 77.307,66.397 77.109 C 66.449 76.911,66.449 76.587,66.397 76.389 C 66.345 76.191,66.303 76.353,66.303 76.749 M61.186 93.519 C 61.187 94.650,61.221 95.087,61.263 94.489 C 61.305 93.891,61.304 92.965,61.262 92.431 C 61.220 91.898,61.186 92.387,61.186 93.519 M282.149 114.656 L 282.099 136.821 278.652 136.883 L 275.206 136.945 278.659 136.991 C 281.266 137.026,282.136 136.974,282.210 136.780 C 282.264 136.638,282.283 126.615,282.254 114.506 L 282.200 92.490 282.149 114.656 M184.246 94.702 L 183.642 95.370 184.311 94.766 C 184.678 94.434,184.979 94.133,184.979 94.097 C 184.979 93.938,184.810 94.078,184.246 94.702 M236.883 98.868 C 236.885 99.321,236.928 99.482,236.977 99.226 C 237.026 98.970,237.024 98.600,236.973 98.403 C 236.921 98.206,236.881 98.416,236.883 98.868 M142.438 98.919 C 144.108 98.954,146.839 98.954,148.508 98.919 C 150.177 98.885,148.812 98.856,145.473 98.856 C 142.135 98.856,140.769 98.885,142.438 98.919 M216.512 98.919 C 218.182 98.954,220.913 98.954,222.582 98.919 C 224.252 98.885,222.886 98.856,219.547 98.856 C 216.209 98.856,214.843 98.885,216.512 98.919 M320.326 98.917 C 320.924 98.959,321.850 98.959,322.383 98.916 C 322.917 98.874,322.428 98.840,321.296 98.841 C 320.165 98.841,319.728 98.876,320.326 98.917 M333.175 101.852 C 333.175 102.248,333.218 102.410,333.269 102.212 C 333.321 102.014,333.321 101.690,333.269 101.492 C 333.218 101.294,333.175 101.456,333.175 101.852 M188.574 114.506 C 188.574 121.749,188.600 124.682,188.632 121.024 C 188.663 117.366,188.663 111.440,188.632 107.855 C 188.600 104.271,188.574 107.263,188.574 114.506 M250.479 102.984 C 250.480 103.776,250.517 104.075,250.562 103.648 C 250.606 103.221,250.605 102.573,250.560 102.207 C 250.515 101.842,250.478 102.191,250.479 102.984 M202.308 104.779 L 202.263 107.397 199.023 107.459 L 195.782 107.522 199.029 107.567 C 202.839 107.621,202.505 107.911,202.417 104.618 L 202.352 102.160 202.308 104.779 M60.969 103.807 C 60.970 104.486,61.009 104.739,61.054 104.369 C 61.100 103.999,61.099 103.443,61.052 103.134 C 61.005 102.825,60.968 103.128,60.969 103.807 M307.915 114.609 C 307.915 121.003,307.941 123.619,307.973 120.422 C 308.005 117.225,308.005 111.993,307.973 108.796 C 307.941 105.599,307.915 108.215,307.915 114.609 M60.977 108.230 C 60.977 109.192,61.013 109.586,61.056 109.105 C 61.099 108.624,61.099 107.837,61.056 107.356 C 61.013 106.875,60.977 107.269,60.977 108.230 M333.175 107.202 C 333.175 107.598,333.218 107.760,333.269 107.562 C 333.321 107.364,333.321 107.040,333.269 106.842 C 333.218 106.644,333.175 106.806,333.175 107.202 M236.883 111.831 C 236.885 112.284,236.928 112.445,236.977 112.189 C 237.026 111.933,237.024 111.563,236.973 111.366 C 236.921 111.169,236.881 111.379,236.883 111.831 M141.821 117.643 C 143.151 117.679,145.327 117.679,146.656 117.643 C 147.986 117.608,146.898 117.578,144.239 117.578 C 141.579 117.578,140.491 117.608,141.821 117.643 M215.895 117.643 C 217.225 117.679,219.401 117.679,220.730 117.643 C 222.060 117.608,220.972 117.578,218.313 117.578 C 215.653 117.578,214.565 117.608,215.895 117.643 M320.113 118.875 C 320.594 118.918,321.381 118.918,321.862 118.875 C 322.343 118.832,321.950 118.796,320.988 118.796 C 320.026 118.796,319.632 118.832,320.113 118.875 M199.069 120.316 L 202.254 120.381 202.318 124.028 L 202.381 127.675 202.374 123.971 L 202.366 120.267 199.125 120.259 L 195.884 120.251 199.069 120.316 M250.279 125.206 C 250.278 126.224,250.313 126.667,250.356 126.189 C 250.399 125.712,250.400 124.878,250.357 124.337 C 250.315 123.797,250.279 124.187,250.279 125.206 M326.220 127.984 C 326.220 130.530,326.249 131.572,326.285 130.298 C 326.321 129.025,326.321 126.942,326.285 125.669 C 326.249 124.396,326.220 125.437,326.220 127.984 M248.399 133.691 L 248.354 136.827 239.146 136.883 L 229.938 136.939 239.153 136.988 C 246.544 137.027,248.387 136.984,248.469 136.770 C 248.525 136.624,248.543 135.165,248.508 133.530 L 248.445 130.556 248.399 133.691 M296.865 131.010 C 297.120 131.059,297.491 131.057,297.688 131.006 C 297.884 130.954,297.675 130.914,297.222 130.916 C 296.770 130.918,296.609 130.961,296.865 131.010 M157.510 136.831 L 154.218 136.950 157.447 136.994 C 159.425 137.020,160.725 136.957,160.802 136.831 C 160.872 136.718,160.901 136.645,160.866 136.669 C 160.831 136.693,159.321 136.766,157.510 136.831 M172.151 136.883 C 172.204 136.968,173.856 137.037,175.823 137.037 C 177.790 137.037,179.443 136.968,179.495 136.883 C 179.547 136.798,177.895 136.728,175.823 136.728 C 173.751 136.728,172.099 136.798,172.151 136.883 M330.453 136.831 L 326.852 136.949 330.389 136.993 C 332.574 137.020,333.975 136.958,334.053 136.831 C 334.123 136.718,334.152 136.645,334.117 136.670 C 334.082 136.694,332.433 136.767,330.453 136.831 M137.191 136.985 C 139.823 137.018,144.128 137.018,146.759 136.985 C 149.390 136.953,147.238 136.926,141.975 136.926 C 136.713 136.926,134.560 136.953,137.191 136.985 M211.265 136.985 C 213.897 137.018,218.202 137.018,220.833 136.985 C 223.465 136.953,221.312 136.926,216.049 136.926 C 210.787 136.926,208.634 136.953,211.265 136.985 M314.043 136.984 C 315.033 137.022,316.654 137.022,317.644 136.984 C 318.634 136.947,317.824 136.916,315.844 136.916 C 313.863 136.916,313.053 136.947,314.043 136.984 M172.936 149.486 L 172.942 154.012 173.560 154.042 C 174.138 154.070,174.142 154.066,173.615 153.977 L 173.053 153.883 172.991 149.421 L 172.930 144.959 172.936 149.486 M177.413 149.421 L 177.366 153.883 176.698 153.966 L 176.029 154.049 176.704 154.082 C 177.605 154.126,177.589 154.217,177.520 149.275 L 177.460 144.959 177.413 149.421 M282.607 149.486 L 282.613 154.012 283.745 154.028 L 284.877 154.043 283.800 153.966 L 282.724 153.889 282.662 149.424 L 282.601 144.959 282.607 149.486 M334.204 145.679 C 334.204 146.075,334.246 146.237,334.298 146.039 C 334.350 145.841,334.350 145.517,334.298 145.319 C 334.246 145.121,334.204 145.283,334.204 145.679 M203.997 147.734 C 204.009 148.950,204.078 149.280,204.321 149.297 C 204.491 149.310,204.518 149.281,204.381 149.235 C 204.228 149.183,204.104 148.582,204.057 147.672 L 203.981 146.193 203.997 147.734 M214.471 147.634 C 214.472 148.426,214.509 148.725,214.553 148.298 C 214.598 147.871,214.597 147.223,214.552 146.858 C 214.506 146.492,214.470 146.842,214.471 147.634 M267.125 150.038 L 267.078 153.883 266.409 153.966 L 265.741 154.049 266.416 154.082 C 267.310 154.126,267.303 154.160,267.232 149.890 L 267.171 146.193 267.125 150.038 M313.235 147.531 C 313.235 148.266,313.272 148.567,313.318 148.200 C 313.363 147.832,313.363 147.230,313.318 146.862 C 313.272 146.494,313.235 146.795,313.235 147.531 M223.744 149.383 C 223.744 151.024,223.776 151.695,223.815 150.874 C 223.854 150.054,223.854 148.711,223.815 147.891 C 223.776 147.070,223.744 147.742,223.744 149.383 M185.472 149.486 C 185.472 151.070,185.505 151.691,185.544 150.865 C 185.583 150.040,185.583 148.744,185.543 147.985 C 185.504 147.226,185.472 147.901,185.472 149.486 M133.825 149.486 C 133.825 150.957,133.858 151.532,133.898 150.763 C 133.937 149.994,133.937 148.791,133.897 148.088 C 133.857 147.386,133.824 148.014,133.825 149.486 M205.203 147.840 C 205.204 148.405,205.244 148.612,205.292 148.300 C 205.339 147.987,205.338 147.524,205.289 147.271 C 205.240 147.018,205.201 147.274,205.203 147.840 M228.064 149.588 C 228.064 151.116,228.097 151.741,228.136 150.977 C 228.176 150.213,228.176 148.963,228.136 148.200 C 228.097 147.436,228.064 148.061,228.064 149.588 M246.942 149.320 C 246.915 149.952,246.875 149.980,245.936 150.055 L 244.959 150.132 245.943 150.169 C 247.004 150.209,247.226 150.005,247.061 149.140 C 246.990 148.770,246.963 148.811,246.942 149.320 M313.253 150.282 C 313.194 150.437,313.180 151.062,313.222 151.671 L 313.298 152.778 313.336 151.504 L 313.374 150.229 314.249 150.151 L 315.123 150.072 314.243 150.036 C 313.660 150.012,313.325 150.095,313.253 150.282 M214.445 152.096 L 214.403 153.883 213.735 153.966 L 213.066 154.049 213.741 154.082 C 214.585 154.123,214.645 153.967,214.557 151.937 L 214.486 150.309 214.445 152.096 M203.950 152.199 L 203.909 153.883 203.241 153.966 L 202.572 154.049 203.247 154.082 C 204.087 154.123,204.153 153.957,204.063 152.038 L 203.991 150.514 203.950 152.199 M234.208 153.344 C 234.252 153.917,234.340 154.016,234.828 154.037 C 235.323 154.059,235.332 154.051,234.891 153.973 C 234.526 153.909,234.354 153.717,234.271 153.280 C 234.162 152.704,234.159 152.707,234.208 153.344 M334.184 153.233 L 334.156 153.895 332.150 153.962 L 330.144 154.029 332.157 154.072 C 334.316 154.118,334.491 154.035,334.304 153.050 C 334.233 152.682,334.206 152.724,334.184 153.233 M217.284 153.669 C 217.284 153.801,216.983 153.923,216.615 153.940 C 215.958 153.971,215.956 153.973,216.537 154.059 C 217.127 154.147,217.691 153.836,217.425 153.570 C 217.347 153.493,217.284 153.537,217.284 153.669 M154.479 154.059 C 154.849 154.104,155.404 154.103,155.714 154.056 C 156.023 154.010,155.720 153.972,155.041 153.973 C 154.362 153.974,154.109 154.013,154.479 154.059 M165.278 154.051 C 165.476 154.103,165.800 154.103,165.998 154.051 C 166.196 154.000,166.034 153.957,165.638 153.957 C 165.242 153.957,165.080 154.000,165.278 154.051 M244.708 154.061 C 245.249 154.103,246.082 154.103,246.560 154.060 C 247.037 154.017,246.595 153.982,245.576 153.983 C 244.558 153.983,244.167 154.018,244.708 154.061 M295.013 154.055 C 295.269 154.104,295.639 154.102,295.836 154.051 C 296.032 153.999,295.823 153.959,295.370 153.961 C 294.918 153.964,294.757 154.006,295.013 154.055 M312.809 154.061 C 313.346 154.103,314.226 154.103,314.763 154.061 C 315.301 154.018,314.861 153.984,313.786 153.984 C 312.711 153.984,312.271 154.018,312.809 154.061 M322.479 154.051 C 322.677 154.103,323.002 154.103,323.200 154.051 C 323.398 154.000,323.236 153.957,322.840 153.957 C 322.443 153.957,322.281 154.000,322.479 154.051 M340.998 154.051 C 341.196 154.103,341.520 154.103,341.718 154.051 C 341.916 154.000,341.754 153.957,341.358 153.957 C 340.962 153.957,340.800 154.000,340.998 154.051 M102.933 166.358 C 102.935 166.811,102.977 166.972,103.026 166.716 C 103.075 166.460,103.074 166.089,103.022 165.893 C 102.971 165.696,102.930 165.905,102.933 166.358 M49.435 170.267 C 49.437 170.720,49.479 170.881,49.528 170.625 C 49.577 170.369,49.576 169.999,49.524 169.802 C 49.473 169.605,49.432 169.815,49.435 170.267 M96.453 169.899 C 96.709 169.948,97.079 169.946,97.276 169.894 C 97.473 169.843,97.263 169.803,96.811 169.805 C 96.358 169.807,96.197 169.849,96.453 169.899 M101.080 170.101 C 101.278 170.152,101.602 170.152,101.800 170.101 C 101.998 170.049,101.836 170.007,101.440 170.007 C 101.044 170.007,100.882 170.049,101.080 170.101 M71.144 170.310 C 71.400 170.359,71.771 170.357,71.967 170.306 C 72.164 170.254,71.955 170.214,71.502 170.216 C 71.049 170.219,70.888 170.261,71.144 170.310 M64.146 170.516 C 64.401 170.565,64.817 170.565,65.072 170.516 C 65.327 170.467,65.118 170.426,64.609 170.426 C 64.100 170.426,63.891 170.467,64.146 170.516 M57.667 172.781 C 57.980 172.829,58.443 172.827,58.696 172.779 C 58.949 172.730,58.693 172.691,58.128 172.693 C 57.562 172.694,57.355 172.734,57.667 172.781 " stroke="none" fill="#a6a6a6" fill-rule="evenodd"></path></g></svg>